<?xml version="1.0" standalone="no"?>
<!DOCTYPE svg PUBLIC "-//W3C//DTD SVG 20010904//EN"
 "http://www.w3.org/TR/2001/REC-SVG-20010904/DTD/svg10.dtd">
<svg version="1.0" xmlns="http://www.w3.org/2000/svg"
 width="250.000000pt" height="40.000000pt" viewBox="0 0 250.000000 40.000000"
 preserveAspectRatio="xMidYMid meet">

<g transform="translate(0.000000,40.000000) scale(0.100000,-0.100000)"
fill="white" stroke="none">
<path d="M1194 325 c-11 -16 -14 -36 -11 -55 4 -19 2 -32 -7 -37 -38 -23 -47
-92 -16 -123 30 -30 68 -25 105 14 23 25 39 33 53 30 25 -7 38 12 21 33 -8 9
-14 23 -14 32 0 11 -8 15 -27 14 -31 -2 -36 8 -13 27 20 17 19 53 -3 73 -28
25 -69 21 -88 -8z m56 -29 c0 -17 -14 -29 -23 -20 -8 8 3 34 14 34 5 0 9 -6 9
-14z m-8 -97 c20 -11 20 -11 -3 -35 -38 -41 -74 -24 -45 21 19 28 20 29 48 14z"/>
<path d="M237 323 c-3 -4 -8 -27 -12 -50 -5 -34 -11 -43 -27 -43 -17 0 -19 6
-16 43 2 36 0 42 -17 42 -22 0 -30 -27 -40 -142 -7 -69 -6 -73 13 -73 17 0 22
8 28 45 5 35 10 45 25 45 16 0 19 -7 19 -41 0 -32 3 -40 17 -37 21 4 32 45 35
137 2 49 -1 75 -9 78 -6 2 -13 0 -16 -4z"/>
<path d="M1750 317 c-75 -38 -62 -197 16 -197 56 0 94 48 94 120 0 38 -25 80
-49 80 -5 0 -15 2 -23 5 -7 3 -24 -1 -38 -8z m60 -57 c13 -25 -3 -85 -25 -94
-26 -9 -48 24 -41 62 8 52 46 70 66 32z"/>
<path d="M697 309 c-24 -14 -57 -82 -57 -116 1 -35 19 -59 54 -73 40 -15 54
-13 81 15 48 47 19 108 -40 85 -30 -11 -31 -46 -2 -44 9 1 17 -2 17 -7 0 -16
-49 -10 -58 7 -21 38 18 99 68 106 14 2 25 10 25 18 0 18 -62 25 -88 9z"/>
<path d="M950 300 c-26 -26 -25 -64 2 -90 12 -11 25 -20 30 -20 4 0 8 -10 8
-21 0 -20 -4 -21 -40 -15 -36 6 -40 4 -40 -14 0 -26 43 -44 79 -32 57 19 60
90 6 126 l-27 18 22 23 c38 40 -1 64 -40 25z"/>
<path d="M1466 312 c-3 -6 -9 -51 -13 -101 -6 -88 -5 -91 15 -91 31 0 74 18
100 42 32 31 30 91 -4 123 -15 14 -32 25 -38 25 -6 0 -21 3 -32 6 -12 3 -25 1
-28 -4z m80 -77 c7 -19 -13 -55 -31 -55 -11 0 -15 12 -15 45 0 43 1 45 21 35
11 -6 22 -17 25 -25z"/>
<path d="M2022 304 c-50 -34 -70 -135 -34 -166 43 -39 104 -32 128 14 17 33
10 67 -14 69 -30 2 -57 -3 -66 -11 -13 -13 14 -42 31 -36 8 3 11 1 8 -4 -10
-16 -52 -12 -59 6 -18 46 20 104 69 104 18 0 25 5 25 20 0 16 -7 20 -33 20
-18 0 -43 -7 -55 -16z"/>
<path d="M2271 294 c-29 -37 -26 -51 15 -89 42 -39 38 -60 -11 -51 -43 8 -56
-11 -25 -36 29 -23 51 -23 84 3 36 29 35 70 -4 102 -34 29 -37 42 -13 55 19
11 11 42 -11 42 -8 0 -24 -12 -35 -26z"/>
<path d="M393 293 c-21 -8 -16 -103 7 -140 23 -39 55 -43 93 -12 48 37 64 144
22 144 -16 0 -21 -8 -25 -45 -6 -52 -15 -70 -36 -70 -18 0 -34 40 -34 85 0 36
-7 45 -27 38z"/>
</g>
</svg>
