<?xml version="1.0" standalone="no"?>
<!DOCTYPE svg PUBLIC "-//W3C//DTD SVG 20010904//EN"
 "http://www.w3.org/TR/2001/REC-SVG-20010904/DTD/svg10.dtd">
<svg version="1.0" xmlns="http://www.w3.org/2000/svg"
 width="220.000000pt" height="220.000000pt" viewBox="0 0 220.000000 220.000000"
 preserveAspectRatio="xMidYMid meet">

<g transform="translate(0.000000,220.000000) scale(0.100000,-0.100000)"
fill="white" stroke="none">
<path d="M148 2140 c-19 -15 -24 -39 -44 -206 -28 -231 -29 -270 -8 -278 56
-21 76 3 89 113 l10 86 45 0 45 0 -3 -73 c-4 -76 6 -102 37 -102 42 0 52 22
67 150 8 69 21 163 30 209 14 77 14 85 -2 102 -20 22 -57 25 -73 5 -8 -10 -41
-155 -41 -183 0 -2 -20 -3 -45 -3 -52 0 -53 4 -34 104 7 41 7 61 -1 71 -18 22
-49 24 -72 5z"/>
<path d="M1405 2141 c-150 -68 -215 -307 -110 -400 70 -62 189 -69 246 -15 39
36 59 81 59 133 0 31 -6 44 -27 61 -24 19 -37 21 -87 17 -71 -6 -102 -31 -92
-71 9 -35 46 -52 76 -36 28 15 33 9 14 -18 -11 -16 -25 -22 -55 -22 -78 0
-110 69 -74 158 31 74 89 114 157 110 36 -3 44 1 54 21 34 66 -67 105 -161 62z"/>
<path d="M1946 2118 c-95 -78 -85 -178 25 -240 42 -23 59 -60 42 -87 -11 -17
-58 -19 -121 -6 -63 14 -82 -32 -32 -80 23 -22 41 -29 85 -33 67 -5 105 9 145
55 24 27 30 43 30 79 0 67 -24 108 -86 149 -30 20 -54 42 -54 50 0 7 18 28 40
45 43 34 50 59 24 84 -24 24 -56 19 -98 -16z"/>
<path d="M672 2073 c-24 -24 -25 -28 -19 -107 17 -212 97 -302 220 -248 85 37
137 142 137 274 0 61 -2 69 -25 84 -20 13 -31 14 -49 6 -22 -10 -24 -18 -28
-99 -4 -99 -26 -150 -74 -172 -50 -22 -71 25 -80 175 -5 97 -6 99 -35 107 -14
4 -29 -2 -47 -20z"/>
<path d="M1040 1403 c-51 -26 -80 -76 -80 -135 0 -27 5 -58 10 -69 9 -16 5
-24 -26 -51 -89 -79 -99 -215 -21 -287 34 -31 111 -40 153 -18 31 16 96 82
125 126 15 24 15 24 47 6 67 -40 113 27 55 81 -21 19 -27 33 -25 55 2 17 -2
37 -8 45 -16 18 -54 18 -70 -1 -14 -17 -20 -18 -40 -5 -13 8 -12 12 8 25 49
35 67 117 38 174 -31 59 -108 84 -166 54z m80 -124 c0 -17 -34 -49 -52 -49
-16 0 -8 69 9 79 22 12 43 -3 43 -30z m-30 -205 c22 -15 40 -30 40 -34 0 -17
-84 -101 -106 -106 -61 -15 -76 71 -23 131 17 19 35 35 40 35 5 0 27 -12 49
-26z"/>
<path d="M745 512 c-76 -48 -105 -111 -105 -227 0 -81 21 -134 69 -180 27 -25
39 -29 86 -29 44 0 62 5 97 30 82 57 113 132 106 252 -5 78 -20 107 -71 146
-39 29 -141 34 -182 8z m134 -108 c37 -48 23 -164 -25 -205 -36 -31 -62 -32
-89 -5 -21 21 -25 34 -25 85 0 99 30 151 86 151 23 0 38 -7 53 -26z"/>
<path d="M1395 511 c-150 -68 -215 -307 -110 -400 70 -62 189 -69 246 -15 39
36 59 81 59 133 0 31 -6 44 -27 61 -24 19 -37 21 -87 17 -71 -6 -102 -31 -92
-71 9 -35 46 -52 76 -36 28 15 33 9 14 -18 -11 -16 -25 -22 -55 -22 -78 0
-110 69 -74 158 31 74 89 114 157 110 36 -3 44 1 54 21 34 66 -67 105 -161 62z"/>
<path d="M128 506 c-21 -10 -24 -21 -29 -106 -4 -52 -7 -143 -8 -201 -1 -123
5 -135 67 -126 58 10 179 74 206 110 101 132 19 291 -168 326 -30 5 -53 4 -68
-3z m157 -148 c28 -34 31 -57 11 -96 -12 -23 -80 -72 -100 -72 -8 0 -8 81 0
158 l7 60 28 -10 c16 -5 40 -23 54 -40z"/>
<path d="M1936 488 c-95 -78 -85 -178 25 -240 42 -23 59 -60 42 -87 -11 -17
-58 -19 -121 -6 -63 14 -82 -32 -32 -80 23 -22 41 -29 85 -33 67 -5 105 9 145
55 24 27 30 43 30 79 0 67 -24 108 -86 149 -30 20 -54 42 -54 50 0 7 18 28 40
45 43 34 50 59 24 84 -24 24 -56 19 -98 -16z"/>
</g>
</svg>
