<?xml version="1.0" standalone="no"?>
<!DOCTYPE svg PUBLIC "-//W3C//DTD SVG 20010904//EN"
 "http://www.w3.org/TR/2001/REC-SVG-20010904/DTD/svg10.dtd">
<svg version="1.0" xmlns="http://www.w3.org/2000/svg"
 width="550.000000pt" height="270.000000pt" viewBox="0 0 550.000000 270.000000"
 preserveAspectRatio="xMidYMid meet">

<g transform="translate(0.000000,270.000000) scale(0.100000,-0.100000)"
fill="white" stroke="none">
<path d="M3277 2274 c-4 -4 -7 -83 -7 -176 l0 -168 40 0 40 0 0 70 0 70 70 0
70 0 0 -70 0 -70 40 0 40 0 -2 173 -3 172 -35 0 -35 0 -3 -72 -3 -73 -69 0
-69 0 -3 73 -3 72 -30 3 c-17 2 -34 0 -38 -4z"/>
<path d="M3740 2150 c0 -146 10 -179 60 -205 39 -20 134 -19 170 2 48 28 55
54 55 197 l0 131 -35 0 -35 0 -3 -125 c-2 -113 -4 -127 -23 -142 -26 -22 -67
-23 -94 -2 -18 13 -20 29 -23 144 l-4 130 -34 0 -34 0 0 -130z"/>
<path d="M4279 2258 c-52 -30 -79 -82 -79 -154 0 -112 57 -174 159 -174 69 0
111 23 135 74 10 20 16 53 14 74 l-3 37 -70 0 c-69 0 -70 0 -73 -27 -3 -27 -1
-28 37 -28 47 0 51 -11 16 -45 -51 -52 -131 -17 -142 61 -3 23 0 58 7 79 22
65 107 81 142 25 17 -27 78 -29 78 -1 0 27 -39 71 -76 87 -47 20 -103 17 -145
-8z"/>
<path d="M4750 2273 c-37 -14 -70 -57 -70 -93 0 -53 23 -77 88 -96 61 -17 102
-39 102 -54 0 -4 -7 -16 -16 -24 -28 -29 -114 -14 -114 19 0 10 -11 15 -35 15
-30 0 -35 -3 -35 -22 1 -53 54 -88 135 -88 66 0 106 18 123 55 32 69 0 115
-103 148 -51 16 -71 27 -73 41 -9 43 63 61 98 26 11 -11 33 -20 50 -20 23 0
30 4 30 20 0 24 -31 57 -66 70 -27 11 -89 12 -114 3z"/>
<path d="M2680 1466 l0 -806 35 0 35 0 -2 803 -3 802 -32 3 -33 3 0 -805z"/>
<path d="M499 2253 c-39 -6 -132 -64 -145 -91 -23 -46 -55 -72 -124 -103 -38
-18 -70 -38 -70 -46 0 -7 7 -29 14 -48 16 -37 29 -41 131 -36 l40 2 -45 -41
c-29 -26 -40 -43 -32 -46 6 -3 12 -11 12 -19 0 -7 14 -18 30 -25 28 -11 37
-10 98 18 54 24 77 30 115 26 94 -8 127 -57 108 -161 -13 -71 -14 -69 52 -177
34 -55 35 -60 22 -86 -8 -15 -50 -50 -93 -78 -119 -76 -130 -122 -56 -233 48
-72 78 -99 133 -117 75 -26 99 -11 87 52 -5 25 -14 37 -35 46 -16 6 -46 30
-66 53 l-37 41 23 17 c13 9 66 32 119 49 52 18 105 39 118 47 29 18 28 6 -8
-74 -16 -36 -30 -78 -30 -93 0 -35 32 -76 67 -85 53 -13 258 -45 291 -45 33 0
33 0 30 43 -3 37 -7 44 -39 60 -38 18 -104 26 -129 14 -9 -4 -24 -1 -35 7 -18
13 -17 16 24 85 41 69 43 71 82 71 39 0 97 9 320 50 135 26 137 26 145 -7 15
-66 76 -153 164 -235 136 -128 144 -167 52 -260 -35 -36 -54 -48 -77 -48 -42
0 -75 -20 -96 -57 -27 -48 -9 -57 104 -50 105 6 127 12 127 36 0 9 29 49 65
89 111 124 127 179 74 240 -70 80 -87 179 -45 261 78 148 79 153 74 257 l-5
98 41 35 c22 20 86 79 141 132 55 53 120 106 145 119 98 49 105 75 17 68 -80
-7 -115 -25 -202 -106 -153 -142 -183 -150 -356 -90 l-124 42 -211 2 c-136 1
-218 5 -231 13 -12 6 -30 11 -40 11 -10 0 -36 9 -58 20 -22 11 -44 20 -50 20
-7 0 -43 10 -81 22 -71 22 -83 31 -171 136 l-43 50 30 10 c27 10 29 14 23 44
-8 43 -20 58 -49 58 -12 0 -25 4 -28 8 -5 9 -260 13 -307 5z"/>
<path d="M4019 1671 c-32 -33 -37 -70 -15 -111 13 -22 12 -27 -15 -58 -38 -44
-38 -84 0 -123 25 -24 37 -29 81 -29 28 0 61 5 72 11 14 8 23 8 31 0 12 -12
77 -15 77 -4 0 4 -9 16 -20 28 -18 19 -18 23 -5 60 22 62 20 75 -14 75 -25 0
-30 -5 -36 -32 l-7 -32 -30 33 -30 33 31 30 c40 39 42 88 6 123 -35 36 -88 34
-126 -4z m94 -46 c3 -7 -2 -24 -12 -37 -16 -19 -21 -20 -35 -9 -16 14 -21 42
-9 54 12 13 51 7 56 -8z m7 -207 c0 -14 -48 -20 -69 -8 -23 12 -28 49 -9 68 9
9 19 5 45 -20 18 -18 33 -35 33 -40z"/>
<path d="M3268 1114 c-5 -4 -8 -84 -8 -177 l0 -169 98 4 c82 2 102 7 130 26
47 34 66 77 66 147 -1 117 -52 163 -191 172 -48 3 -91 2 -95 -3z m187 -89 c21
-20 25 -34 25 -79 0 -74 -26 -106 -93 -113 l-47 -6 0 112 0 111 45 0 c35 0 52
-6 70 -25z"/>
<path d="M3815 1106 c-63 -29 -95 -85 -95 -164 1 -106 63 -172 162 -172 105 0
162 66 156 182 -4 72 -20 103 -70 141 -34 25 -113 32 -153 13z m100 -60 c87
-37 60 -216 -32 -216 -42 0 -71 25 -83 71 -21 76 12 144 78 158 1 1 18 -5 37
-13z"/>
<path d="M4286 1097 c-52 -29 -79 -83 -79 -157 0 -105 61 -170 160 -170 93 0
143 48 146 138 l2 47 -70 0 c-69 0 -70 0 -73 -27 -3 -26 -1 -28 36 -28 35 0
39 -2 35 -20 -14 -54 -89 -66 -134 -21 -23 24 -29 38 -29 75 0 65 15 95 54
111 41 17 78 8 98 -25 17 -27 78 -29 78 -1 0 27 -39 71 -76 87 -48 20 -103 17
-148 -9z"/>
<path d="M4743 1106 c-60 -27 -79 -110 -34 -150 10 -9 49 -27 87 -39 47 -15
70 -28 72 -40 6 -29 -17 -47 -59 -47 -30 0 -42 5 -55 25 -21 33 -74 36 -74 4
0 -57 51 -89 139 -89 53 0 65 4 93 29 27 24 33 36 33 70 0 54 -23 75 -110 103
-51 17 -71 28 -74 42 -7 43 64 61 99 26 24 -24 80 -27 80 -5 0 8 -13 29 -28
46 -24 27 -37 33 -83 36 -33 2 -66 -2 -86 -11z"/>
<path d="M600 380 l0 -40 60 0 59 0 -24 -62 c-13 -35 -27 -71 -31 -82 -5 -14
-3 -17 11 -15 12 3 27 30 46 84 16 44 29 86 29 93 0 8 -19 12 -60 12 -57 0
-60 1 -60 25 0 16 -6 25 -15 25 -11 0 -15 -11 -15 -40z"/>
<path d="M2360 380 l0 -40 55 0 c30 0 55 -4 55 -9 0 -5 -11 -39 -25 -75 -29
-78 -29 -76 -11 -76 11 0 76 156 76 183 0 4 -27 7 -60 7 -57 0 -60 1 -60 25 0
16 -6 25 -15 25 -11 0 -15 -11 -15 -40z"/>
<path d="M255 359 c-4 -6 2 -13 14 -16 18 -5 21 -13 21 -59 0 -42 -5 -58 -20
-71 -25 -22 -26 -33 -2 -33 32 0 42 22 42 93 l0 68 43 -3 42 -3 3 -77 c2 -60
6 -78 17 -78 24 0 21 151 -3 173 -21 20 -146 24 -157 6z"/>
<path d="M510 309 c0 -81 24 -77 28 4 2 46 0 57 -13 57 -12 0 -15 -13 -15 -61z"/>
<path d="M820 275 c0 -78 3 -95 15 -95 12 0 15 17 15 95 0 78 -3 95 -15 95
-12 0 -15 -17 -15 -95z"/>
<path d="M930 325 c0 -36 5 -48 25 -61 23 -15 45 -12 45 7 0 5 -7 9 -15 9 -13
0 -35 36 -35 56 0 2 18 4 39 4 43 0 71 -26 71 -65 0 -11 -7 -31 -16 -43 -12
-18 -25 -22 -65 -22 -37 0 -49 -4 -49 -15 0 -11 12 -15 49 -15 71 0 106 31
106 95 0 64 -35 95 -106 95 l-49 0 0 -45z"/>
<path d="M1160 310 c0 -33 4 -60 9 -60 14 0 21 27 21 76 0 32 -4 44 -15 44
-12 0 -15 -13 -15 -60z"/>
<path d="M1270 296 c0 -92 16 -116 80 -116 61 0 90 33 90 103 0 68 -15 90 -60
85 -18 -2 -36 -9 -38 -17 -3 -10 1 -12 19 -8 33 9 49 -9 49 -57 0 -49 -23 -86
-53 -86 -42 0 -52 16 -57 91 -3 45 -10 74 -17 77 -10 3 -13 -16 -13 -72z"/>
<path d="M1640 355 c0 -8 7 -15 15 -15 12 0 15 -14 15 -65 0 -51 -3 -65 -15
-65 -8 0 -15 -7 -15 -15 0 -22 37 -18 50 4 5 11 10 47 10 80 l0 61 33 0 c48 0
57 -15 57 -92 0 -56 3 -68 16 -68 25 0 15 157 -11 176 -27 20 -155 19 -155 -1z"/>
<path d="M1900 275 c0 -78 3 -95 15 -95 12 0 15 17 15 95 0 78 -3 95 -15 95
-12 0 -15 -17 -15 -95z"/>
<path d="M2010 355 c0 -9 9 -15 25 -15 24 0 25 -2 25 -65 l0 -65 -30 0 c-20 0
-30 -5 -30 -15 0 -11 12 -15 45 -15 l45 0 0 83 c0 51 -5 88 -12 95 -18 18 -68
15 -68 -3z"/>
<path d="M2160 356 c0 -11 14 -16 48 -18 l47 -3 3 -62 3 -63 -51 0 c-38 0 -50
-4 -50 -15 0 -12 16 -15 80 -15 48 0 80 4 80 10 0 6 -7 13 -15 16 -11 5 -15
22 -15 69 0 77 -16 95 -83 95 -34 0 -47 -4 -47 -14z"/>
<path d="M2560 355 c0 -11 12 -15 44 -15 51 0 76 -24 76 -72 0 -39 -24 -58
-76 -58 -32 0 -44 -4 -44 -15 0 -11 12 -15 46 -15 37 0 51 5 75 29 64 64 19
161 -75 161 -34 0 -46 -4 -46 -15z"/>
<path d="M3200 310 c0 -33 4 -60 9 -60 14 0 21 27 21 76 0 32 -4 44 -15 44
-12 0 -15 -13 -15 -60z"/>
<path d="M3310 351 c5 -11 15 -23 20 -26 6 -4 2 -16 -10 -32 -25 -32 -29 -113
-5 -113 11 0 15 12 15 44 0 70 20 74 60 10 21 -33 42 -54 53 -54 17 0 17 2 -3
31 -20 28 -21 31 -6 48 9 9 19 39 22 64 6 39 4 47 -10 47 -11 0 -16 -9 -16
-27 0 -38 -10 -73 -21 -73 -5 0 -24 22 -41 50 -19 28 -41 50 -51 50 -14 0 -16
-4 -7 -19z"/>
<path d="M3520 355 c0 -8 7 -15 15 -15 12 0 15 -14 15 -65 0 -51 -3 -65 -15
-65 -8 0 -15 -7 -15 -15 0 -18 31 -20 48 -3 7 7 12 41 12 81 l0 68 43 -3 42
-3 3 -77 c2 -60 6 -78 17 -78 12 0 15 16 15 75 0 101 -13 115 -110 115 -56 0
-70 -3 -70 -15z"/>
<path d="M3770 356 c0 -11 14 -16 48 -18 l47 -3 3 -62 3 -63 -51 0 c-38 0 -50
-4 -50 -15 0 -12 15 -15 75 -15 60 0 75 3 75 15 0 8 -4 15 -10 15 -6 0 -10 27
-10 60 0 77 -20 100 -85 100 -33 0 -45 -4 -45 -14z"/>
<path d="M3980 337 c0 -19 3 -62 6 -96 l7 -61 46 0 c85 0 124 40 134 138 5 39
3 52 -7 52 -13 0 -26 -42 -26 -85 0 -12 -9 -34 -21 -49 -16 -20 -29 -26 -60
-26 -32 0 -39 4 -39 19 0 12 11 23 30 29 18 7 31 19 34 34 13 61 13 78 1 78
-15 0 -25 -22 -25 -56 0 -16 -8 -27 -22 -33 -21 -8 -23 -5 -28 37 -6 55 -30
70 -30 19z"/>
<path d="M4360 356 c0 -11 15 -16 53 -18 l52 -3 3 -77 c2 -60 6 -78 17 -78 22
0 21 152 -1 174 -21 22 -124 23 -124 2z"/>
<path d="M4590 275 c0 -78 3 -95 15 -95 12 0 15 16 15 81 l0 80 48 -3 47 -3 3
-77 c2 -60 6 -78 17 -78 12 0 15 16 15 79 0 101 -8 111 -96 111 l-64 0 0 -95z"/>
<path d="M4825 333 c2 -21 7 -64 10 -95 l6 -58 47 0 c61 0 93 17 114 60 19 37
25 130 8 130 -10 0 -15 -18 -24 -85 -7 -51 -37 -77 -85 -73 -25 2 -37 8 -39
21 -2 10 3 17 13 17 29 0 65 46 65 85 0 24 -4 35 -15 35 -10 0 -15 -10 -15
-34 0 -25 -7 -39 -22 -51 -23 -15 -23 -15 -31 35 -6 33 -13 50 -23 50 -11 0
-13 -9 -9 -37z"/>
<path d="M2928 263 c12 -2 32 -2 45 0 12 2 2 4 -23 4 -25 0 -35 -2 -22 -4z"/>
</g>
</svg>
