<?xml version="1.0" standalone="no"?>
<!DOCTYPE svg PUBLIC "-//W3C//DTD SVG 20010904//EN"
 "http://www.w3.org/TR/2001/REC-SVG-20010904/DTD/svg10.dtd">
<svg version="1.0" xmlns="http://www.w3.org/2000/svg"
 width="550.000000pt" height="270.000000pt" viewBox="0 0 550.000000 270.000000"
 preserveAspectRatio="xMidYMid meet">

<g transform="translate(0.000000,270.000000) scale(0.100000,-0.100000)"
fill="white" stroke="none">
<path d="M3693 2348 c-4 -7 -12 -40 -18 -73 -10 -59 -11 -60 -44 -63 l-33 -3
7 65 c6 57 4 67 -11 73 -25 9 -48 -10 -56 -48 -4 -19 -14 -90 -22 -159 -12
-104 -12 -127 -1 -139 21 -22 54 -4 59 32 17 113 15 107 46 107 30 0 30 0 30
-60 0 -56 2 -60 23 -60 30 0 47 18 47 50 0 14 7 78 16 142 14 95 14 121 4 133
-15 18 -36 19 -47 3z"/>
<path d="M4400 2302 c-118 -122 -76 -282 74 -282 45 0 92 39 107 89 20 69 -20
103 -98 84 -33 -8 -38 -12 -38 -38 0 -27 3 -30 33 -30 33 0 37 -11 10 -28 -21
-14 -65 0 -79 24 -16 31 -2 85 33 124 26 30 36 35 73 35 35 0 45 4 50 20 11
34 -12 50 -68 50 -47 0 -54 -3 -97 -48z"/>
<path d="M4835 2328 c-37 -29 -58 -80 -45 -112 5 -14 27 -38 49 -53 44 -31 53
-45 45 -68 -7 -17 -60 -20 -83 -6 -18 11 -51 -4 -51 -23 0 -17 40 -52 68 -59
62 -15 136 38 136 98 0 46 -18 75 -67 109 l-41 29 32 27 c34 28 40 48 20 68
-17 17 -32 15 -63 -10z"/>
<path d="M2790 1516 l0 -806 25 0 25 0 -2 803 -3 802 -22 3 -23 3 0 -805z"/>
<path d="M629 2303 c-39 -6 -132 -64 -145 -91 -23 -46 -55 -72 -124 -103 -38
-18 -70 -38 -70 -46 0 -7 7 -29 14 -48 16 -37 29 -41 131 -36 l40 2 -45 -41
c-29 -26 -40 -43 -32 -46 6 -3 12 -11 12 -19 0 -7 14 -18 30 -25 28 -11 37
-10 98 18 54 24 77 30 115 26 94 -8 127 -57 108 -161 -13 -71 -14 -69 52 -177
34 -55 35 -60 22 -86 -8 -15 -50 -50 -93 -78 -119 -76 -130 -122 -56 -233 48
-72 78 -99 133 -117 75 -26 99 -11 87 52 -5 25 -14 37 -35 46 -16 6 -46 30
-66 53 l-37 41 23 17 c13 9 66 32 119 49 52 18 105 39 118 47 29 18 28 6 -8
-74 -16 -36 -30 -78 -30 -93 0 -35 32 -76 67 -85 53 -13 258 -45 291 -45 33 0
33 0 30 43 -3 37 -7 44 -39 60 -38 18 -104 26 -129 14 -9 -4 -24 -1 -35 7 -18
13 -17 16 24 85 41 69 43 71 82 71 39 0 97 9 320 50 135 26 137 26 145 -7 15
-66 76 -153 164 -235 136 -128 144 -167 52 -260 -35 -36 -54 -48 -77 -48 -42
0 -75 -20 -96 -57 -27 -48 -9 -57 104 -50 105 6 127 12 127 36 0 9 29 49 65
89 111 124 127 179 74 240 -70 80 -87 179 -45 261 78 148 79 153 74 257 l-5
98 41 35 c22 20 86 79 141 132 55 53 120 106 145 119 98 49 105 75 17 68 -80
-7 -115 -25 -202 -106 -153 -142 -183 -150 -356 -90 l-124 42 -211 2 c-136 1
-218 5 -231 13 -12 6 -30 11 -40 11 -10 0 -36 9 -58 20 -22 11 -44 20 -50 20
-7 0 -43 10 -81 22 -71 22 -83 31 -171 136 l-43 50 30 10 c27 10 29 14 23 44
-8 43 -20 58 -49 58 -12 0 -25 4 -28 8 -5 9 -260 13 -307 5z"/>
<path d="M3925 2293 c-14 -14 -16 -28 -10 -87 12 -120 47 -176 111 -176 70 0
130 79 141 184 6 62 -5 86 -42 86 -20 0 -23 -6 -27 -63 -13 -159 -108 -186
-108 -30 0 94 -25 127 -65 86z"/>
<path d="M4177 1809 c-32 -19 -50 -68 -43 -119 5 -38 3 -49 -9 -54 -28 -10
-55 -69 -55 -118 0 -53 32 -101 76 -112 37 -10 103 26 138 74 24 32 32 37 47
30 28 -15 47 -12 59 10 8 16 6 24 -12 42 -12 12 -21 32 -20 44 2 11 -4 27 -13
34 -13 11 -20 11 -40 0 -34 -18 -43 -5 -17 23 11 12 23 34 27 48 8 31 -16 83
-44 99 -25 13 -71 12 -94 -1z m68 -70 c7 -11 -22 -49 -37 -49 -10 0 -11 44 -1
53 10 10 31 8 38 -4z m5 -185 c0 -19 -67 -76 -86 -72 -31 5 -31 62 0 93 24 24
25 24 55 7 17 -9 31 -22 31 -28z"/>
<path d="M4003 1193 c-55 -11 -103 -89 -103 -168 0 -86 51 -155 114 -155 145
0 203 260 71 316 -35 14 -42 15 -82 7z m75 -91 c19 -25 14 -85 -11 -123 -38
-56 -79 -49 -91 16 -18 94 52 168 102 107z"/>
<path d="M4435 1178 c-65 -35 -108 -108 -108 -183 -1 -60 20 -96 68 -119 65
-31 129 -16 166 40 45 68 9 133 -68 121 -47 -8 -67 -28 -58 -57 6 -18 13 -21
36 -18 36 6 40 -19 5 -28 -82 -20 -111 70 -47 147 22 26 37 34 77 38 52 6 68
27 44 56 -15 18 -86 19 -115 3z"/>
<path d="M4814 1156 c-27 -27 -34 -42 -34 -74 0 -33 5 -45 33 -66 56 -44 67
-56 67 -71 0 -24 -40 -35 -77 -20 -26 11 -35 11 -50 0 -24 -18 -9 -44 41 -69
36 -17 39 -17 82 -1 47 18 74 54 74 97 0 34 -35 85 -70 103 -37 19 -38 39 -5
61 40 26 29 74 -17 74 -5 0 -25 -15 -44 -34z"/>
<path d="M3525 1158 c-2 -13 -6 -81 -7 -153 l-3 -130 31 -3 c19 -2 53 9 94 30
69 36 100 78 100 134 0 69 -90 144 -172 144 -31 0 -38 -4 -43 -22z m123 -81
c29 -27 28 -58 -4 -91 -30 -29 -70 -36 -60 -10 3 9 6 42 6 75 0 51 2 58 18 52
9 -3 27 -15 40 -26z"/>
<path d="M790 415 c0 -35 0 -35 45 -35 43 0 45 -1 45 -30 0 -18 -11 -42 -30
-64 -34 -38 -24 -62 12 -30 30 28 48 68 48 109 l0 35 -50 0 c-47 0 -50 2 -50
25 0 14 -4 25 -10 25 -5 0 -10 -16 -10 -35z"/>
<path d="M2520 416 c0 -36 0 -36 45 -36 44 0 45 -1 45 -31 0 -19 -10 -43 -25
-61 -39 -47 -28 -70 12 -25 31 34 43 62 43 101 0 36 0 36 -44 36 -38 0 -45 3
-48 22 -5 38 -28 33 -28 -6z"/>
<path d="M440 393 c0 -6 3 -13 8 -15 4 -1 6 -29 4 -60 -3 -42 -8 -58 -18 -58
-8 0 -14 -4 -14 -10 0 -5 16 -10 35 -10 38 0 38 0 19 71 -3 9 0 29 6 43 8 22
15 27 38 24 26 -3 27 -5 30 -70 2 -52 6 -68 17 -68 19 0 21 118 3 142 -16 20
-128 30 -128 11z"/>
<path d="M1128 374 c-14 -35 -14 -40 1 -51 16 -13 41 -17 41 -8 0 3 -6 14 -12
25 -16 25 1 45 31 35 18 -5 21 -14 21 -61 l0 -54 -50 0 c-27 0 -50 -4 -50 -10
0 -6 28 -10 65 -10 l65 0 0 64 c0 64 -14 96 -43 96 -7 0 -21 3 -33 6 -17 5
-24 -1 -36 -32z"/>
<path d="M1804 401 c-9 -9 -3 -21 10 -21 12 0 13 -7 6 -31 -5 -17 -7 -44 -3
-60 4 -22 2 -29 -11 -29 -9 0 -16 -4 -16 -10 0 -5 14 -10 31 -10 l31 0 -7 49
c-9 63 6 93 43 89 26 -3 27 -6 30 -70 2 -52 6 -68 17 -68 12 0 15 14 15 58 0
81 -15 99 -86 104 -31 1 -58 1 -60 -1z"/>
<path d="M2320 393 c0 -8 13 -13 35 -13 39 0 49 -19 43 -81 -3 -32 -5 -34 -45
-37 -70 -5 -49 -22 27 -22 65 0 90 10 55 24 -11 4 -15 21 -15 59 0 32 -5 59
-12 65 -21 16 -88 20 -88 5z"/>
<path d="M2715 402 c-14 -14 -1 -22 34 -22 45 0 51 -10 51 -76 l0 -44 -50 0
c-28 0 -50 -5 -50 -10 0 -7 24 -10 63 -8 l62 3 3 50 c3 71 -14 99 -66 106 -23
3 -44 3 -47 1z"/>
<path d="M3506 402 c-4 -6 -2 -21 4 -32 7 -14 8 -26 0 -39 -16 -31 -13 -91 5
-91 11 0 15 12 15 48 l1 47 44 -50 c31 -36 47 -47 55 -39 7 7 5 16 -10 29 -18
17 -19 20 -5 35 9 10 18 33 22 52 4 30 2 36 -16 41 -14 3 -21 0 -21 -9 0 -8 4
-14 9 -14 6 0 6 -12 0 -30 -6 -16 -15 -30 -19 -30 -9 0 -48 45 -66 76 -7 12
-13 14 -18 6z"/>
<path d="M3720 393 c0 -6 3 -13 8 -15 4 -1 6 -29 4 -60 -3 -42 -8 -58 -18 -58
-8 0 -14 -4 -14 -10 0 -5 16 -10 35 -10 38 0 38 0 19 71 -3 9 0 29 6 43 8 22
15 27 38 24 26 -3 27 -5 30 -70 2 -52 6 -68 17 -68 19 0 21 118 3 142 -16 20
-128 30 -128 11z"/>
<path d="M3940 393 c0 -8 13 -13 35 -13 39 0 49 -19 43 -81 -3 -32 -5 -34 -45
-37 -70 -5 -49 -22 27 -22 65 0 90 10 55 24 -11 4 -15 21 -15 59 0 32 -5 59
-12 65 -21 16 -88 20 -88 5z"/>
<path d="M4520 393 c0 -8 13 -13 33 -13 46 0 57 -15 57 -82 0 -32 4 -58 10
-58 15 0 13 135 -2 148 -20 16 -98 20 -98 5z"/>
<path d="M4714 385 c3 -11 6 -48 6 -82 0 -35 4 -63 10 -63 6 0 10 26 10 58 0
70 9 85 46 80 28 -3 29 -4 32 -70 2 -54 6 -68 19 -68 13 0 15 11 11 69 -2 39
-7 73 -11 78 -5 4 -35 10 -68 13 -57 6 -60 5 -55 -15z"/>
<path d="M650 390 c0 -5 7 -10 15 -10 10 0 15 -11 15 -35 0 -24 5 -35 15 -35
11 0 15 12 15 45 0 43 -1 45 -30 45 -16 0 -30 -4 -30 -10z"/>
<path d="M980 391 c0 -5 7 -11 15 -15 11 -4 15 -22 15 -71 0 -37 4 -65 10 -65
6 0 10 33 10 80 0 79 0 80 -25 80 -14 0 -25 -4 -25 -9z"/>
<path d="M1310 390 c0 -5 10 -10 21 -10 19 0 21 -4 16 -35 -4 -26 -2 -35 9
-35 10 0 14 13 14 45 0 43 -1 45 -30 45 -16 0 -30 -4 -30 -10z"/>
<path d="M1454 384 c3 -9 6 -45 6 -80 l0 -64 39 0 c49 0 87 29 100 77 16 57 5
83 -34 83 -25 0 -35 -5 -40 -21 -9 -27 4 -39 16 -16 15 26 39 21 39 -8 0 -49
-39 -95 -79 -95 -5 0 -12 32 -16 70 -5 53 -11 70 -22 70 -10 0 -13 -6 -9 -16z"/>
<path d="M2020 391 c0 -5 7 -11 15 -15 11 -4 15 -22 15 -71 0 -37 4 -65 10
-65 6 0 10 33 10 80 0 79 0 80 -25 80 -14 0 -25 -4 -25 -9z"/>
<path d="M2160 390 c0 -5 8 -10 19 -10 14 0 20 -10 25 -46 10 -73 9 -74 -29
-74 -19 0 -35 -4 -35 -10 0 -5 23 -10 50 -10 l51 0 -7 68 c-3 37 -7 73 -10 80
-4 14 -64 17 -64 2z"/>
<path d="M3360 390 c0 -5 10 -10 21 -10 19 0 21 -4 16 -35 -4 -26 -2 -35 9
-35 10 0 14 13 14 45 0 43 -1 45 -30 45 -16 0 -30 -4 -30 -10z"/>
<path d="M4147 333 c6 -90 7 -93 43 -93 48 0 97 25 114 59 18 33 22 101 6 101
-5 0 -10 -6 -10 -12 0 -7 -5 -30 -11 -51 -10 -39 -35 -61 -80 -72 -27 -7 -27
-6 -34 64 -5 47 -11 71 -20 71 -9 0 -12 -17 -8 -67z"/>
<path d="M4208 355 c-14 -36 -14 -45 -4 -45 8 0 21 18 30 40 19 49 19 50 3 50
-7 0 -20 -20 -29 -45z"/>
<path d="M4925 368 c3 -18 7 -54 10 -80 6 -48 7 -48 43 -48 40 0 95 28 110 57
5 10 13 37 17 61 5 33 4 42 -8 42 -9 0 -16 -14 -20 -42 -7 -49 -40 -86 -82
-90 -26 -3 -30 1 -33 22 -9 89 -14 110 -27 110 -10 0 -13 -10 -10 -32z"/>
<path d="M4997 378 c-3 -13 -9 -33 -12 -45 -12 -38 13 -27 30 13 19 45 19 54
1 54 -7 0 -16 -10 -19 -22z"/>
<path d="M3040 330 c0 -6 27 -10 61 -10 37 0 58 4 54 10 -3 6 -31 10 -61 10
-30 0 -54 -4 -54 -10z"/>
</g>
</svg>
